<svg id="图层_1" data-name="图层 1" xmlns="http://www.w3.org/2000/svg" viewBox="0 0 320.02 580.19"><defs><style>.cls-1{fill:#7a1f1f;}</style></defs><title>logo2</title><path class="cls-1" d="M405,143.29c.81,5.35,1.63,10.7,2.64,17.38-4.93-5-5.89-10.15-4.11-17.13Z" transform="translate(-140.99 -101.44)"/><path class="cls-1" d="M388.93,107.38c3.11.45,7.64,2.13,6.29,7.49l-.32.24-7.67.58-6.51,5.44-9.55-7.56-10.69-8.46C370.77,105.84,379.93,106.07,388.93,107.38Z" transform="translate(-140.99 -101.44)"/><path class="cls-1" d="M390.16,119c1.4,8.46-3.86,19.82-12,23.39.34-.89.67-1.79,1-2.68,5.48-5.77,4.9-12,1.52-18.53l6.51-5.44C388.25,116.77,390,117.74,390.16,119Z" transform="translate(-140.99 -101.44)"/><path class="cls-1" d="M248,667c-3,5.87-2.53,9.67,1.91,12.07H239.76c5.52-5.12-.78-15.34-6.24-23.82h9.87c-2.29,3.16-1.94,5.06,2.7,12.2,1.45-4.49,2.62-8.11,4-12.31h4.25C252.16,659.11,250,663,248,667Z" transform="translate(-140.99 -101.44)"/><path class="cls-1" d="M262.41,667.16c.9,1.65,1.59,2.93,2.29,4.23-1.64,2.13-5.86,3.48-2.3,7.63h-5.14Z" transform="translate(-140.99 -101.44)"/><path class="cls-1" d="M278.32,679.18h-8c.18-1.62.82-3.17.42-4.38-1.75-5.22-4-10.27-5.6-15.52-.34-1.11,1.12-2.78,1.76-4.19,1.05.8,2.65,1.39,3.06,2.44,2.23,5.63,4.13,11.4,6.22,17.09C276.67,676.07,277.47,677.42,278.32,679.18Z" transform="translate(-140.99 -101.44)"/><path class="cls-1" d="M336.48,531.07c5.24.57,10.46,1.66,15.69,1.7,22.49.2,45,0,67.47.16,3.95,0,7.13-.87,9.67-3.93,2.38-2.86,4.69-3.3,8-.8,3.9,2.95,8.41,5.08,13.13,7.84-7.71,7.19-6.18,16.55-6.94,25.06-.83,9.31-.42,18.77-.1,28.15a110.36,110.36,0,0,0,2.07,15.64c.29,1.63,1.64,3.07,3,5.49,6.86-9.56,6-20.87,10.15-30.32l1.56.24c-.36,4.74-.29,9.56-1.17,14.2-1.61,8.52-.55,16.79,1.62,25,1.45,5.52-1.44,14-6.43,17.26-4.45,2.89-11.86,1.7-16.58-2.09-7.74-6.21-11.27-14.75-12.61-24a303.28,303.28,0,0,1-3-35c-.23-8.53,1.19-17.11,1.76-25.67.2-3,0-6,0-9.46H346.56c-.09,1.78-.25,3.53-.26,5.28,0,12.33-.36,24.67.07,37,.7,19.89-8.21,34.44-24,45.52-3.51,2.46-6.82,5.19-10.39,7.54-1.56,1-3.55,1.41-6.52,2.53,4.5-7.35,8.12-13.35,11.82-19.29a41.92,41.92,0,0,0,6.48-21.47q.67-28.9,1-57.82c0-3.08-.56-6.17-.93-10C327.86,530.21,332.18,530.6,336.48,531.07Z" transform="translate(-140.99 -101.44)"/><path class="cls-1" d="M350.94,550.72c10.78,4.36,19.33,12.69,30.63,18.39,3.09-7.2,6.44-14.25,9.11-21.55,1.54-4.22,3.78-4.92,7.43-3.24,5.07,2.34,10.11,4.75,15.17,7.12,2.74,1.28,2.94,4.21.89,5-5.52,2.06-6.1,7.47-8.94,11.28-2.16,2.9-3.63,6.32-5.87,9.14-3.11,3.9-2,6,1.57,9.15A131,131,0,0,1,418,603.43c5.5,6.87-.1,20-8.86,21.2-2,.27-5-2-6.42-3.92-5.21-7.21-9.92-14.77-14.84-22.19-.71-1.07-1.53-2.08-2.56-3.45-13.44,12.52-27.35,23.09-44.24,29.62l34.41-43-25.41-29.77Z" transform="translate(-140.99 -101.44)"/><path class="cls-1" d="M366.9,679c-.25-3.5-.51-7-.78-10.76h6.35a33,33,0,0,1-.66,5.21c-.71,2.52.2,6.53-4.63,5.83Z" transform="translate(-140.99 -101.44)"/><path class="cls-1" d="M350.88,666.6C352,658.08,359.59,653,368,655c3.36.8,3.74,1.8,2.5,7.59a14.4,14.4,0,0,1-2.24-2.54c-2.26-4.54-6.71-5.09-9.78-.83s-2.89,8.95-1.21,13.71c1.62,4.56,5,6.33,9.65,6.09l.28.28c-3.95,2.46-7.64,1.06-10.9-1.2C352.4,675.4,350.21,671.52,350.88,666.6Z" transform="translate(-140.99 -101.44)"/><path class="cls-1" d="M324.55,679.11c3.21-3.51,3.16-19.77.07-23.8,3.67-.95,6.53-.66,8.81,3.14,2.74,4.58,6.25,8.71,9.61,13.28,1.81-8.7,1.13-13.13-2.89-16.66h7.22c-4.43,8-.59,16.73-3,26.56-3.09-4.27-5.43-7.58-7.83-10.83a80.39,80.39,0,0,0-7.79-9.4c.64,6-3,12.39,2.19,17.71Z" transform="translate(-140.99 -101.44)"/><path class="cls-1" d="M321.21,679.09H304c2.73-3.68,2.6-19.91-.57-24.19,4.65,0,8.91-.14,13.15.07,1.49.07,3.75.63,4.21,1.63.66,1.44,0,3.5-.66,5.43-2-3.79-4.06-7.78-8.43-4.84-1.53,1-.65,5.66-.88,8.65l6.25-.93v5.82l-6.47-3v9.8h7.57l1.72-4,1.11.07C321,675.33,321.11,677,321.21,679.09Z" transform="translate(-140.99 -101.44)"/><path class="cls-1" d="M294.26,622c.86.78,2,2.5,1.71,3a4.7,4.7,0,0,1-3.28,2.19c-5.83.23-11.66.12-17.5.12-11.66,0-23.33-.15-35,.15-2,.05-4.1,1.83-6,3.07-1.07.7-1.62,2.29-2.73,2.84-3.19,1.6-6.89,4.5-9.76,3.89-4.81-1-6.9-5.83-6.92-10.85-.07-18.16,0-36.33,0-54.5,0-1-.1-2-.15-2.92l-1.78-.51c-.27,1.56-1.21,3.42-.68,4.62,1.74,3.93.32,5.21-3.46,5.2h-6.37c0,12.52-.24,24.48.1,36.42.19,6.67-1.31,12.14-7.51,15.3-5.38,2.76-10.93,5.21-16.5,7.55a4.35,4.35,0,0,1-3.68-.7c-4.52-3.66-8.87-7.54-13.28-11.34a6.39,6.39,0,0,1-1.41-1.27c-.22-.35,0-.95,0-1.53,4.87-1.26,9.71-2.58,14.59-3.74,3.87-.93,5.4-3.3,5.21-7.2s0-7.54,0-12.59c-11.46,12.26-24.3,20.42-38.78,26.57,10.72-15,21.61-29.64,28.2-47.66-4.94.43-9.34,1.06-13.76,1.15-8.87.19-8.87.07-12.27-9.13,1.4.25,2.57.51,3.75.65,3.21.4,4.77-.56,5-4.28.36-7.37,1.36-14.72,2.19-23.06h.08c7,.89,13.58,1.62,20.12,2.76.52.09,1.36,3.69.67,4.49-5,5.88-3.1,13-5,19.86h9.46v-30c-4.26,0-8.5-.09-12.75,0-4.08.11-8.35,1.1-12.26.68a13.65,13.65,0,0,1-2-.36c-2.79-.73-4.65-5.06-7.22-8.11,17.75,0,34.32.14,50.89-.16,2.28,0,4.45-2.45,6.83-3.32,1.44-.52,3.57-.82,4.72-.11a44.32,44.32,0,0,1,7.25,6c.71.68,1.4,2.29,1.06,3a5.11,5.11,0,0,1-2.94,2,12.13,12.13,0,0,1-3.47.1c-6,0-8.3,2.1-8.2,8.33.1,6.72.7,13.43,1.08,20.18,10.49-3.44,11.91-13.31,15.24-21.52a142,142,0,0,0,6-20.31c1-4.38,3-5,6.67-3.11,5.13,2.65,10.28,5.24,15.44,7.81,2.75,1.37,3.34,3,1,5.34-3.39,3.41-6.65,6.95-11,11.49,5.56-.31,9.41-.33,13.19-.85,1-.15,2.3-1.63,2.7-2.76,1.92-5.43,3.51-11,5.36-16.42.7-2.06,1.52-3.88,4.62-2.75,5.4,2,11,3.38,16.46,5.19,3.31,1.1,4.26,2.24.94,5.3-3.15,2.92-5.13,7.12-7.69,10.86,4.38,1.78,4.6,2,8.58-2,2.91-2.92,4.89-2.5,7.35.29,1.29,1.46,3.19,2.38,4.5,3.84a19.72,19.72,0,0,1,2.26,4.06c-1.37.67-2.72,1.86-4.11,1.92-5.93.21-11.86.09-17.85.09v18.54a54,54,0,0,0,5.29-4.07c2.74-2.79,5.18-3.82,8.16-.16,1.53,1.88,3.88,3.08,5.59,4.84.74.76,1.37,2.43,1,3.2a4,4,0,0,1-3.06,1.58c-5.47.16-10.95.07-16.74.07v18.38a65.33,65.33,0,0,0,5.22-4.09c2.63-2.58,4.95-3.54,7.81-.15,1.66,2,4,3.32,5.89,5.14.68.66,1.36,2.22,1,2.79a4.15,4.15,0,0,1-2.9,1.85c-4.16.21-8.33.07-12.5.11-1.6,0-3.21.17-5,.28v16.6c4.68,1.91,7.55-.82,10.31-3.31,2.17-2,3.62-3,5.88.1C289.65,619.09,292.31,620.25,294.26,622Zm-44.59-49.43V555.74H237.56v16.84Zm-.06,23.95V579.79H237.43v16.74Zm0,24V603.81H237.44v16.71Z" transform="translate(-140.99 -101.44)"/><path class="cls-1" d="M295.84,663.13c.17,2.5.33,4.94.52,7.63l-6.64-3Z" transform="translate(-140.99 -101.44)"/><path class="cls-1" d="M288.85,667.37c.61,4.89,1,8.31,1.47,11.82h-7.48c2.5-8,2.8-15.78-.59-24.3,4.57,0,8.7,0,12.83,0,1.48,0,2.95.14,5.09.24-.13,2.32-.25,4.41-.37,6.51-2.79-3.61-4.94-7-10.24-4.6v10.63C289.33,667.59,289.09,667.48,288.85,667.37Z" transform="translate(-140.99 -101.44)"/><path class="cls-1" d="M400.7,415.82c2.87-16.52,7.73-32.9,3.54-51.36C394.39,381.89,399.09,399,400.7,415.82ZM362.29,126.46c7.13-1.65,14.23,5.93,12.86,15.65,2.23-6.39.34-10.76-3.19-14C369.67,126,366.44,123.7,362.29,126.46ZM345,158.32c9.9,4.49,18.62,2.09,24.76-6.52,1.88-2.63,3.17-3.9,6.56-1.27s7.87,4.78,12,2.45c-3.54-1-7.95-1.34-11.2-3.45-3.94-2.57-5.7-1.45-8.45,1.47C362.48,157.57,354.94,161,345,158.32ZM303.56,313.39a4.5,4.5,0,0,0,2.31-.15c2.9-.6,5.79-1.25,9.69-2.1-.54,4.28-1.14,7.15-1.23,10-.42,14.62-.68,29.23-1.05,43.85-.3,11.45-.51,22.9-1.06,34.34-.35,7.24-1.34,14.45-1.87,21.69-.48,6.61-1,13.23-1,19.84,0,7.06,5.12,12.77,11.26,12.68,4.35-19.15,4.06-38.81,4.32-58.44,12.63-1,24.68-1.08,36.2-5.26,7.71-2.79,15.68-4.87,23.47-7.45,1-.35,2.52-1.86,2.42-2.64-.17-1.16-1.4-2.38-2.48-3.14a7.7,7.7,0,0,0-3.68-1.28c-6.19-.55-12.4-.95-19.65-1.48a47.06,47.06,0,0,1,3.1-4.22c4.69-5.09,9.76-9.85,14-15.27,1.57-2,2.67-6.69,1.54-7.95-2-2.26-5.83-3.26-9.06-4-1.9-.43-4.14.77-6.25,1.11-1.8.29-3.63.39-5.44.57l-.9-1.51,9-10.12c-2.87-1.88-5.42-3.54-8.32-5.45-.22-3.35-1.24-7.1,4.77-7.83,3.32-.4,4.51-4.61,2-6.37A44,44,0,0,0,353.83,307c-1.49-.46-3.74,2-5.77,2.73-3.34,1.28-6.77,2.29-10.52,3.53-1.74,5.37,3,6.1,6.49,7.31,2.6.89,4.33,1.61,4.36,4.91s-1.55,4.7-4.3,5.76c-3.84,1.48-7.61,3.14-11.33,4.89-.93.43-2.34,1.7-2.2,2.2a4.6,4.6,0,0,0,2.36,2.65,14.15,14.15,0,0,0,4.79.77c3.08.11,6.17,0,9.25,0l.87,1.54c-1.16,1.44-2.06,3.27-3.53,4.26-3.68,2.48-7.7,4.47-11.42,6.9-1.1.71-1.65,2.25-2.46,3.41a16,16,0,0,0,3.08,2,56.33,56.33,0,0,0,7.08,2.09c2.16.49,4.39.68,6.79,1-3.39,8.58-15.68,17.69-22.08,16.8a7.88,7.88,0,0,1-.43-1.83q-.06-17.25-.05-34.5c0-3.38-.16-6.78,0-10.15.23-4.06-.17-8.53,1.44-12,1.73-3.74,5.36-6.65,8.37-9.72,7.35-7.5,14.86-14.84,22.23-22.32,2.87-2.92,2.51-5.18-1.08-7a10.8,10.8,0,0,0-4.25-1c-10.72-.52-19.08,5.6-28,10.09-4,2-7.84,4.2-11.75,6.31l-1.2-1.19a45.68,45.68,0,0,1,1.6-5.34c3.94-9,7.89-18.08,12-27,1.71-3.74-.84-6.23-3-7.43-3.1-1.69-3.35,1.83-4.15,3.88-.23.59-.84,1-1.16,1.6-6.3,11.21-12.67,22.39-18.83,33.68C294.05,301.33,297.86,311.21,303.56,313.39ZM273,134l3.9-8.64c6.69,7.38,13.85,22.65,15.5,31.1,1.56,8,1.84,15.93-2.88,22.88-2.88,4.26-6.94,7.71-9.75,10.73,11.64-4.18,17.44-11.86,17-25-.56-16.21-9.64-28.91-18.22-42.55-3,3.39-5.53,6.31-8.59,9.82Zm-11.69,22.94c-.31-1.16-.67-2.45-1-3.75,1,4.16-.64,7-3.27,10.14-2.23,2.68-3.57,6.37-4.45,9.84-.71,2.79-.14,5.91-.14,8.88l1.65.15c-2.92-11.17,3.25-18.22,10.72-24.75,2.66-2.32,5.26-1.37,6.84.7a25.41,25.41,0,0,1,5.19,18c-.64,7.37-4.92,12.76-10.69,17.57.52.2,1,.39,1.55.55h0c14.5,4.77,27.5-3.06,41.07-4.28H301.8c4.41-6.28,8.53-12.57,13.11-18.52,3-3.93,11.93-4.73,17.09-.87l0,0c-.09.12-.19.23-.28.34l-10,1.82c3.05,1,6.75,1.91,10-1.82l.63-.12-.32-.25c.79-.9,3.2-.5,5.42-.78-3.53,11.17-11.42,16.3-21.17,19.38,10.62-.66,21.65-11.95,22-20.61a99.45,99.45,0,0,0-10-1.21,97.47,97.47,0,0,0-10.07.67l.74-1.46c-1.5-1.36-2.9-3.74-4.51-3.88-4.56-.42-9.2.08-12.77.19l13.79,2.35c-8.35,18.22-24.37,30.82-47.57,28.29,1.22-1.09,2.18-1.9,3.1-2.75,5.65-5.31,9.23-11.64,8.76-19.59-.38-6.47-4-11.29-8.76-15.43-3.52-3.05-5.47,1.71-8.38,1.44C262.26,157.11,261.94,157,261.26,156.92ZM254,331.11c-.37,0-.71-.55-1.25-1,6.59-9.18,13.18-18.2,19.58-27.35,5.67-8.1,11.14-16.33,16.68-24.52,1.34-2,2.42-4.15-.22-5.93-5.31-3.56-11.74-4.65-17.17-2.5-8.65,3.41-16.6,8.63-25,13.17,2,5.73,6.47,7.37,12.11,8.5-.72,2.09-.9,4.17-2,5.55-8.51,10.72-17.27,21.25-25.76,32-2.26,2.86-5.25,6.18-5.44,9.43-.36,6.25,2.27,12.13,5.93,17L265.17,344a8.16,8.16,0,0,1-1.48,5.14c-5.58,7.35-11.38,14.55-16.83,22-5.05,6.91-9.82,14-14.53,21.18-.61.92-.07,2.6-.07,3.92,1.16-.25,2.66-.13,3.43-.82,6.14-5.5,12.54-10.79,18.07-16.86,6.66-7.31,12.53-15.33,18.81-23a9,9,0,0,1,2.63-1.54c.34.68,1,1.39,1,2-.73,8-1.4,16.09-2.45,24.1-.54,4.09,2.44,13.44,5.58,15.62,2.72,1.89,5.2,1.13,5.44-1.88,1.41-17.78,2.85-35.57,3.95-53.37.22-3.61,1.33-5.68,4.42-7.51,4.5-2.67,8.63-6,14-9.78-3.72-2.84-6-5.56-9-6.62-3.95-1.43-7.56-2.45-9.44-6.81-.65-1.51-3-2.3-4.54-3.42-1.28,1.8-3.29,3.44-3.73,5.43C278,322.91,265.62,332.13,254,331.11Zm-.92-188,1.88-1.41a7.51,7.51,0,0,0,2.1,3l.21,3.13c.45-.61.9-1.21,1.36-1.81a18.44,18.44,0,0,1-1.57-1.32l-.3-4.3-1.8,1.35c-.7-2.11.26-4.36,2.95-7.34,3.74-4.15,7.91-7.9,11.75-12a30.74,30.74,0,0,0,3-4.49l-1.32-.49c-.94,1.36-1.58,3.16-2.86,4-8.5,5.71-15.78,12.66-20.53,21.73-4.58,8.76-6.82,18.05-2.41,28.31C246.13,161,247.21,151.35,253.12,143.07Zm-45.28,37c0,.09,0,.18,0,.27l.25.32c6.35,16.66,20.89,25.78,40.47,20.74a48.44,48.44,0,0,0,8.28-3c2.95-1.37,4.92-.24,6.24,2.17.55,1,1.05,1.93,1.51,2.76s.89,1.6,1.28,2.29c3.42,6,4.89,7.07,12.87,12.74-21.37-1.36-41.42-2.24-61.16,1.7-.08.74-.17,1.49-.25,2.23,3.33.83,6.63,1.94,10,2.46,11.86,1.79,23.76,3.36,35.64,5.06a6.62,6.62,0,0,1,3.21,1.1c1.2,1,3,2.59,2.79,3.61a5.47,5.47,0,0,1-3.32,3.63c-6.51,1.63-13.11,3-19.73,4.11-12.11,2.08-24.69,1.92-36.11,7.27-1.9.9-3.27,2.92-4.46,5,5.6-4.85,12.59-5,19.11-5.56,10.23-.9,20.57-.45,30.82-1.26,13-1,26-2.32,37.76-8.61,2.14-1.14,3.71-3.34,5.54-5-1.78-1.35-3.54-2.73-5.37-4a40.41,40.41,0,0,0-3.7-1.94c3-.13,4.69-.27,6.4-.27,18.17,0,36.34.06,54.5-.07a68.1,68.1,0,0,0,11.81-1.23c2-.36,3.73-1.68,6.33-2.91-2.91-2.61-5.29-4.54-7.43-6.71-2.57-2.6-2.87-5,.07-8,5.61-5.8,13.08-7.45,20.16-9.93,5.22-1.82,10.71-2.86,16.27-4.29,2.16,8.13-1.52,16.57,2.72,23.87l1.65.2q2.24-10.59,4.49-21.19l1.6.26c.08,1.57.22,3.13.22,4.69,0,10.34,0,20.67,0,31,.32,59.95.92,119.9.72,179.84,0,8.95-3.57,17.94-5.87,26.82-1.6,6.19-4.13,12.13-5.72,18.33-1.1,4.28-4.15,5.88-7.69,6.76-12.12,3-24.3,5.69-36.43,8.58-15.53,3.69-30.65,4-44.93-5l14.28-7c-8.67-5.4-47.62-1.45-64.06,6.88l26.63,4.08.09.65c-7.1.28-14.21,1-21.29.76-19-.7-36.65-7.38-54.75-12.12-7-1.83-9.6-5.08-9.49-12.32.22-13,1.06-25.91.87-38.85-.28-18.73-1.3-37.46-1.9-56.19-.73-22.56-2.65-45.19-1.59-67.67.87-18.54-2.41-36.49-3.21-54.73-.31-7.18,1.27-14.44,2-21.66.92-9.18,2.37-18.34,2.68-27.54.46-13.65-.1-27.33.21-41,.17-7.74,1.16-15.45,1.91-23.17.58-6,4.2-10,9.21-12.68,10.45-5.61,21.45-6,32.64-2.67,7.4,2.19,14.65,4.93,22.11,6.87a74,74,0,0,0,15.11,2.22,168,168,0,0,0,22.66,0c11.79-1,23.51-2.85,35.27-4.32,5.2-.65,10.4-1.27,16-1.94-3.2,11.16-6.82,21.58,1.39,31.9-.07-5.23-4.57-9.89-1.07-15.14-3.57-2-2.13-13.2,3.84-17.53.24,3,.44,5.59.65,8.19l1-.2c-.21-1.43-.41-2.86-.62-4.36A20.53,20.53,0,0,1,371,113.74c7.77,6.08,12,17.1,8.17,25.92-.34.89-.67,1.79-1,2.68a7.69,7.69,0,0,0,0,1c0,.07.29.21.34.17,4.87-3.62,9.72-7.27,14.75-11-3.18-2.13-1.72-13.58,1.64-17.32l.32-.24c1.35,3,3.59,5.88,3.86,9a185.92,185.92,0,0,1,.19,20.45q-.31,13.68-1,27.34c-.29,5.72-4.82,8.58-9.2,10-11.54,3.69-23.24,7.21-35.13,9.44-14.69,2.77-29.62,4.21-44.46,6.15-10.77,1.41-21.55,2.67-32.32,4.11a21.65,21.65,0,0,0-4.4,1.57c0,.5,0,1,0,1.52,3.36.78,6.69,2.05,10.09,2.27,9.26.6,18.57.49,27.82,1.19,8,.6,16,1.72,23.95,3.08,2.42.42,4.58,2.39,6.86,3.66-.12.65-.23,1.31-.35,2-2.61.56-5.21,1.59-7.82,1.62-14.83.16-29.68.59-44.48-.09-9.69-.44-16.36-5.6-21-13.17-.5-.83-1-1.68-1.44-2.57s-1-2-1.43-3c-2-4.58-5.34-4.71-10.24-2.82a42,42,0,0,1-16.4,2.52c-8.09-.34-16-2.55-22.18-8.33-3.09-2.92-5.41-6.67-8-10.07-.06-.14-.12-.28-.17-.42l-.06-.17c.09-1.34.18-2.71.29-4.57l8.52,2.85c.12-.21.23-.43.35-.65-1.5-1.12-3-2.25-4.68-3.53,10.53-3.33,20.61-2.8,30.45,1.91-11.78-7.78-24.26-8.54-37.75-4C206.05,175,206.94,177.5,207.84,180ZM341.7,150.38l13.13-7.12a20.24,20.24,0,0,0-16.55,10.52l6.09-1.23-2.27-.82C342,151.28,341.84,150.83,341.7,150.38ZM221.25,185c2.54,4.81,6.56,2,10,1.91Z" transform="translate(-140.99 -101.44)"/></svg>